<svg width="44" height="45" viewBox="0 0 44 45" fill="none" xmlns="http://www.w3.org/2000/svg">
<path d="M22 8.30007V37.4812M11.1879 32.687C12.178 30.8253 13.6306 29.2498 15.406 28.1121C17.3094 26.8922 19.5722 26.1852 22 26.1852C24.4276 26.1852 26.6905 26.8922 28.594 28.1121C30.3693 29.2498 31.822 30.8253 32.812 32.687M11.1879 13.0943C12.1779 14.956 13.6306 16.5315 15.406 17.6691C17.3094 18.8891 19.5722 19.5961 22 19.5961C24.4276 19.5961 26.6905 18.8891 28.594 17.6691C30.3693 16.5315 31.822 14.956 32.812 13.0943M8.7593 6.35814C11.8167 3.90695 15.5679 2.28601 19.672 1.83789M0.947266 20.5627C1.3953 16.4586 3.01623 12.7074 5.46752 9.65002M38.5325 9.65002C40.9837 12.7074 42.6046 16.4586 43.0527 20.5627M24.3279 1.83798C28.432 2.28601 32.1832 3.90695 35.2406 6.35823M8.7593 39.4232C11.8167 41.8744 15.5679 43.4953 19.672 43.9434M24.3279 43.9433C28.432 43.4953 32.1832 41.8744 35.2406 39.4231M0.947266 25.2186C1.3953 29.3227 3.01623 33.0739 5.46752 36.1313M38.5325 36.1313C40.9837 33.0739 42.6046 29.3227 43.0527 25.2186" stroke="#0B0C58" stroke-width="1.875" stroke-miterlimit="10" stroke-linecap="round" stroke-linejoin="round"/>
</svg>
