<svg width="30" height="9" viewBox="0 0 30 9" fill="none" xmlns="http://www.w3.org/2000/svg">
<path fill-rule="evenodd" clip-rule="evenodd" d="M3.63696 1.44043H4.11046C5.93336 1.44043 7.42476 2.93183 7.42476 4.75463C7.42476 6.57753 5.93336 8.06893 4.11046 8.06893H3.63696C2.59536 8.06893 1.74316 7.21673 1.74316 6.17503V3.33423C1.74316 2.29263 2.59536 1.44043 3.63696 1.44043ZM26.3633 1.44043H25.8898C24.0669 1.44043 22.5755 2.93183 22.5755 4.75463C22.5755 6.57753 24.0669 8.06893 25.8898 8.06893H26.3633C27.405 8.06893 28.2572 7.21673 28.2572 6.17503V3.33423C28.2572 2.29263 27.405 1.44043 26.3633 1.44043Z" stroke="#0B0C58" stroke-width="1.87501" stroke-miterlimit="22.9256" stroke-linecap="round" stroke-linejoin="round"/>
</svg>
