<svg width="22" height="22" viewBox="0 0 22 22" fill="none" xmlns="http://www.w3.org/2000/svg">
<path d="M1.5 6.15049C2.0177 6.15049 2.4375 5.73079 2.4375 5.21299V2.40049H5.25C6.4909 2.35529 6.4931 0.571591 5.25 0.525491H1.5C0.9823 0.525491 0.5625 0.945191 0.5625 1.46299V5.21299C0.5625 5.73079 0.9823 6.15049 1.5 6.15049ZM5.25 19.2754H2.4375V16.4629C2.3924 15.2222 0.6086 15.2197 0.5625 16.4629V20.2128C0.5625 20.7306 0.9823 21.1503 1.5 21.1503H5.25C6.49 21.1077 6.4918 19.3187 5.25 19.2754ZM20.25 0.525391H16.5C15.258 0.571191 15.2578 2.35459 16.5 2.40039H19.3125V5.21289C19.3582 6.45439 21.1415 6.45539 21.1875 5.21289V1.46289C21.1875 0.945191 20.7678 0.525391 20.25 0.525391ZM20.25 15.5255C19.7323 15.5255 19.3125 15.9452 19.3125 16.463V19.2755H16.5C15.2591 19.3207 15.2569 21.1044 16.5 21.1505H20.25C20.7677 21.1505 21.1875 20.7308 21.1875 20.213V16.463C21.1875 15.9452 20.7678 15.5255 20.25 15.5255ZM10.875 4.27549C8.2903 4.27549 6.1875 6.37829 6.1875 8.96299V10.838C6.3289 14.5635 11.6713 14.5635 11.8125 10.838V8.96299C11.8125 8.44519 11.3927 8.02549 10.875 8.02549C10.3573 8.02549 9.9375 8.44519 9.9375 8.96299V10.838C9.8911 12.0789 8.1097 12.0806 8.0625 10.838V8.96299C8.0625 7.41219 9.3242 6.15049 10.875 6.15049C12.4258 6.15049 13.6875 7.41219 13.6875 8.96299C13.6875 9.48079 14.1073 9.90049 14.625 9.90049C15.1427 9.90049 15.5625 9.48079 15.5625 8.96299C15.5625 6.37829 13.4597 4.27549 10.875 4.27549Z" fill="#0B0C58"/>
</svg>
