<svg width="62" height="38" viewBox="0 0 62 38" fill="none" xmlns="http://www.w3.org/2000/svg">
<path d="M1.46191 11.6285L5.01191 15.1785M1.46191 15.1785L5.01191 11.6285M25.4197 3.6587C24.3251 1.2845 20.9431 0.643599 18.6551 1.9087C16.3671 3.1741 15.1129 5.7908 14.7193 8.3755C14.3258 10.9602 14.6483 13.592 14.7372 16.205C14.9511 22.485 16.3956 36.8492 8.66817 36.6658C-10.1506 36.2192 22.2208 3.2241 30.3494 13.671C31.5146 15.1685 33.8298 15.9123 35.3717 14.8065C36.9131 13.701 37.3419 11.1348 39.2072 10.7891C40.4674 10.5557 52.4412 17.694 60.3262 13.115" stroke="#0B0C58" stroke-width="2.5" stroke-miterlimit="10" stroke-linecap="round" stroke-linejoin="round"/>
</svg>
